<svg width="321" height="102" viewBox="0 0 321 102" fill="none" xmlns="http://www.w3.org/2000/svg">
<g clip-path="url(#clip0_4666_41204)">
<path d="M175.988 89.4419C176.726 88.997 177.555 88.739 178.408 88.689C179.261 88.639 180.113 88.7983 180.894 89.154C181.583 89.4641 182.203 89.9175 182.715 90.486L182.846 90.6384L183.773 89.741L183.642 89.5943C183.014 88.8875 182.254 88.3209 181.407 87.9293C180.44 87.4824 179.384 87.2811 178.327 87.3419C177.269 87.4028 176.241 87.7241 175.328 88.2792C174.311 88.8998 173.466 89.7826 172.875 90.8416C172.282 91.9139 171.97 93.128 171.97 94.3635C171.97 95.5991 172.282 96.8131 172.875 97.8854C173.463 98.9435 174.309 99.8232 175.328 100.437C176.355 101.058 177.524 101.382 178.714 101.373H183.62V94.2563H177.994V95.5996H182.279V100.013H178.714C177.755 100.02 176.812 99.7545 175.988 99.2456C175.162 98.7456 174.477 98.0318 173.998 97.1743C173.515 96.3182 173.261 95.344 173.262 94.3522C173.257 93.3601 173.512 92.385 173.998 91.5302C174.474 90.6665 175.16 89.9466 175.988 89.4419Z" fill="white"/>
<path d="M194.218 95.3851C194.656 95.3252 195.082 95.1978 195.483 95.0069C196.135 94.7114 196.699 94.242 197.118 93.6467C197.501 93.131 197.738 92.5158 197.803 91.8693C197.868 91.2228 197.76 90.5702 197.489 89.9837C197.266 89.492 196.947 89.0538 196.551 88.6968C196.125 88.3009 195.629 87.9942 195.09 87.7937C194.514 87.5858 193.907 87.4808 193.297 87.4833H188.559V101.362H189.851V88.8097H193.297C193.889 88.7964 194.476 88.9299 195.009 89.1991C195.46 89.4287 195.848 89.7723 196.137 90.1981C196.385 90.5699 196.52 91.0104 196.524 91.4624C196.524 91.9563 196.363 92.4357 196.066 92.8226C195.779 93.2197 195.406 93.5408 194.976 93.7596C194.231 94.0395 193.44 94.1679 192.648 94.1377H190.625L196.361 101.345H198.072L193.362 95.4359C193.657 95.4246 193.945 95.3851 194.218 95.3851Z" fill="white"/>
<path d="M211.603 88.2735C210.57 87.6486 209.395 87.3193 208.199 87.3193C207.002 87.3193 205.827 87.6486 204.794 88.2735C203.763 88.8917 202.909 89.7817 202.319 90.8528C201.414 92.4796 201.166 94.4108 201.629 96.2259C202.093 98.041 203.23 99.593 204.794 100.544C205.828 101.165 207.003 101.492 208.199 101.492C209.394 101.492 210.569 101.165 211.603 100.544C212.635 99.9154 213.491 99.0187 214.086 97.9426C214.68 96.8666 214.993 95.6483 214.993 94.4086C214.993 93.1689 214.68 91.9507 214.086 90.8746C213.491 89.7985 212.635 88.9019 211.603 88.2735ZM213.664 94.4086C213.673 95.4156 213.419 96.4064 212.928 97.2758C212.453 98.1393 211.767 98.8577 210.938 99.3585C210.105 99.8602 209.159 100.124 208.196 100.124C207.232 100.124 206.286 99.8602 205.454 99.3585C204.624 98.8546 203.935 98.1372 203.453 97.2758C202.967 96.4029 202.712 95.4132 202.712 94.4058C202.712 93.3984 202.967 92.4087 203.453 91.5358C203.938 90.6769 204.627 89.9602 205.454 89.4531C206.286 88.9514 207.232 88.6871 208.196 88.6871C209.159 88.6871 210.105 88.9514 210.938 89.4531C211.764 89.9575 212.45 90.6751 212.928 91.5358C213.418 92.4075 213.672 93.3999 213.664 94.4086Z" fill="white"/>
<path d="M228.018 96.0681C228.02 96.6078 227.92 97.1428 227.723 97.6428C227.535 98.1309 227.253 98.5745 226.895 98.9466C226.534 99.3205 226.106 99.6177 225.635 99.8214C225.168 100.024 224.667 100.128 224.161 100.128C223.654 100.128 223.153 100.024 222.686 99.8214C222.215 99.6177 221.787 99.3205 221.427 98.9466C221.07 98.5733 220.788 98.1301 220.598 97.6428C220.402 97.1428 220.302 96.6078 220.304 96.0681V87.4834H219.006V96.085C219.004 96.7986 219.135 97.5059 219.393 98.1677C219.637 98.8154 220.009 99.4036 220.484 99.8948C220.961 100.402 221.53 100.809 222.157 101.091C222.786 101.367 223.462 101.509 224.144 101.509C224.827 101.509 225.503 101.367 226.132 101.091C226.744 100.805 227.299 100.401 227.767 99.9004C228.252 99.41 228.633 98.8198 228.885 98.1677C229.142 97.5057 229.273 96.7986 229.272 96.085V87.4834H227.974L228.018 96.0681Z" fill="white"/>
<path d="M241.124 88.0083C240.451 87.6409 239.703 87.4473 238.943 87.4438H234.096V101.323H235.394V95.5036H238.921C239.681 95.5009 240.43 95.3072 241.102 94.9392C241.76 94.6038 242.323 94.0984 242.737 93.4717C243.131 92.8789 243.342 92.1763 243.342 91.4568C243.342 90.7373 243.131 90.0347 242.737 89.4419C242.324 88.8312 241.769 88.3382 241.124 88.0083ZM242.05 91.485C242.048 91.9522 241.903 92.4068 241.636 92.7832C241.342 93.2018 240.95 93.536 240.497 93.7539C240.008 94.0005 239.47 94.126 238.927 94.1208H235.399V88.8323H238.948C239.492 88.8253 240.029 88.949 240.518 89.1935C240.972 89.4117 241.364 89.7458 241.658 90.1643C241.919 90.5512 242.056 91.0131 242.05 91.485Z" fill="white"/>
<path d="M247.491 101.345H256.317V99.9625H248.788V95.0916H254.654V93.7257H248.788V88.8323H256.317V87.4664H247.491V101.345Z" fill="white"/>
<path d="M277.883 89.566C277.297 88.8969 276.577 88.3674 275.774 88.0139C274.941 87.6403 274.043 87.4481 273.135 87.4495H269.194V101.328H273.124C274.032 101.33 274.93 101.138 275.763 100.764C276.569 100.406 277.29 99.8684 277.872 99.1892C278.432 98.538 278.872 97.7862 279.17 96.971C279.781 95.2785 279.781 93.4146 279.17 91.722C278.874 90.9267 278.438 90.1955 277.883 89.566ZM270.491 88.8323H273.124C274.174 88.8007 275.207 89.1148 276.074 89.7294C276.941 90.344 277.597 91.2274 277.949 92.2526C278.19 92.936 278.312 93.6584 278.309 94.386C278.313 95.1211 278.191 95.8511 277.949 96.5421C277.723 97.1963 277.372 97.797 276.918 98.3087C276.443 98.8653 275.854 99.3059 275.194 99.5987C274.534 99.8915 273.82 100.029 273.102 100.002H270.458L270.491 88.8323Z" fill="white"/>
<path d="M285.063 87.4664H283.766V101.345H292.368V100.002H285.063V87.4664Z" fill="white"/>
<path d="M303.942 88.0083C303.269 87.6424 302.521 87.4488 301.761 87.4438H296.92V101.323H298.202V95.5036H301.729C302.489 95.5 303.237 95.3064 303.909 94.9392C304.568 94.6045 305.131 94.0989 305.545 93.4717C305.939 92.8789 306.149 92.1763 306.149 91.4568C306.149 90.7373 305.939 90.0347 305.545 89.4419C305.135 88.8322 304.584 88.3391 303.942 88.0083ZM304.863 91.485C304.861 91.9522 304.716 92.4068 304.449 92.7832C304.157 93.2016 303.767 93.5358 303.315 93.7539C302.824 93.9998 302.285 94.1253 301.74 94.1208H298.202V88.8323H301.751C302.296 88.8259 302.835 88.9495 303.326 89.1935C303.777 89.4134 304.167 89.7472 304.46 90.1643C304.725 90.5499 304.866 91.0119 304.863 91.485Z" fill="white"/>
<path d="M315.499 94.5836L320.526 87.4664H318.896L311.607 97.8403V87.4664H310.31V102L314.72 95.735L319.283 101.345H321L315.499 94.5836Z" fill="white"/>
<path d="M158.107 93.9064H74.1088V94.5893H158.107V93.9064Z" fill="white"/>
<path d="M169.299 59.5508C172.837 58.3898 175.925 56.0873 178.109 52.9799C180.293 49.8724 181.46 46.1231 181.439 42.2799C181.435 37.4457 179.579 32.8108 176.278 29.392C172.976 25.9732 168.5 24.0498 163.831 24.0438H140.302V79.0568H146.195V60.4313H162.806L175.007 79.0568H182.094L169.299 59.5508ZM146.195 30.1451H163.831C165.387 30.1103 166.933 30.3975 168.381 30.9898C169.828 31.5822 171.146 32.4678 172.258 33.5946C173.37 34.7215 174.254 36.0669 174.857 37.5521C175.461 39.0372 175.771 40.6321 175.771 42.2432C175.771 43.8543 175.461 45.4492 174.857 46.9343C174.254 48.4194 173.37 49.7649 172.258 50.8917C171.146 52.0186 169.828 52.9042 168.381 53.4965C166.933 54.0889 165.387 54.3761 163.831 54.3413H146.195V30.1451Z" fill="white"/>
<path d="M192.626 24.0438V30.1451H212.372V79.0568H218.265V30.1451H238.011V24.0438H192.626Z" fill="white"/>
<path d="M255.908 23.7108H250.021V78.7238H255.908V23.7108Z" fill="white"/>
<path d="M297.874 23.6882H292.014L269.025 78.7463H275.398L294.947 32.5269L305.261 56.7231H293.099V62.7228H307.616L314.365 78.6786H320.804L297.874 23.6882Z" fill="white"/>
<path d="M101.448 79.9768C96.0399 79.9779 90.7525 78.3184 86.2549 75.2083C81.7573 72.0981 78.2515 67.677 76.181 62.504C74.1105 57.3309 73.5682 51.6384 74.6227 46.1463C75.6772 40.6542 78.2811 35.6092 82.1052 31.6493C85.9292 27.6894 90.8017 24.9925 96.1063 23.8996C101.411 22.8068 106.909 23.3671 111.906 25.5097C116.903 27.6523 121.174 31.281 124.179 35.9368C127.184 40.5926 128.788 46.0664 128.788 51.666C128.781 59.1712 125.898 66.367 120.773 71.6745C115.647 76.982 108.698 79.9678 101.448 79.9768ZM101.448 29.1799C97.1499 29.1844 92.949 30.5084 89.3772 32.9845C85.8053 35.4606 83.0228 38.9777 81.3815 43.091C79.7403 47.2042 79.3139 51.729 80.1564 56.0931C80.9988 60.4572 83.0722 64.4647 86.1145 67.6089C89.1568 70.7531 93.0312 72.8927 97.248 73.7572C101.465 74.6218 105.834 74.1724 109.804 72.4659C113.775 70.7595 117.167 67.8726 119.552 64.1702C121.938 60.4679 123.209 56.1164 123.206 51.666C123.2 45.6958 120.905 39.9721 116.825 35.7526C112.746 31.5331 107.215 29.163 101.448 29.163V29.1799Z" fill="white"/>
<path d="M6.3729 25.8838L8.98966 29.2985H17.1234L0 6.96484V78.9778H6.50919L6.3729 64.1621V25.8838Z" fill="#FF5100"/>
<path d="M54.5049 0V78.0521L21.7246 35.3038H13.5908L60.8724 96.9711V0H54.5049Z" fill="#FF5100"/>
</g>
<defs>
<clipPath id="clip0_4666_41204">
<rect width="321" height="102" fill="white"/>
</clipPath>
</defs>
</svg>
