<?xml version="1.0" encoding="UTF-8"?>
<svg width="16px" height="20px" viewBox="0 0 16 20" version="1.1" xmlns="http://www.w3.org/2000/svg" xmlns:xlink="http://www.w3.org/1999/xlink">
    <title>PDF</title>
    <g id="Page-1" stroke="none" stroke-width="1" fill="none" fill-rule="evenodd">
        <g id="PDF" fill="#FF5500" fill-rule="nonzero">
            <path d="M14,20.00089 L2,20.00089 C0.89543,20.00089 0,19.10549 0,18.00089 L0,2.00087 C0,0.8963 0.89543,0.00087 2,0.00087 L9,0.00087 C9.009,-0.00029 9.018,-0.00029 9.027,0.00087 L9.033,0.00087 C9.0424,0.00383 9.0522,0.00584 9.062,0.00687 C9.1502,0.01252 9.2373,0.02967 9.321,0.05787 L9.336,0.05787 L9.351,0.05787 L9.363,0.05787 C9.3815,0.0708 9.3988,0.08518 9.415,0.10087 C9.5239,0.1493 9.6232,0.21706 9.708,0.30087 L15.708,6.30087 C15.7918,6.38566 15.8596,6.48493 15.908,6.59387 C15.917,6.61587 15.924,6.63687 15.931,6.65987 L15.941,6.68787 C15.9689,6.77126 15.9854,6.85805 15.99,6.94587 C15.9909,6.95583 15.9932,6.96561 15.997,6.97487 L15.997,6.98087 C15.9986,6.98743 15.9996,6.99412 16,7.00087 L16,18.00089 C16,18.53129 15.7893,19.03999 15.4142,19.41509 C15.0391,19.79019 14.5304,20.00089 14,20.00089 Z M10.424,12.00089 L10.424,17.00089 L11.364,17.00089 L11.364,14.96089 L12.824,14.96089 L12.824,14.12289 L11.364,14.12289 L11.364,12.84189 L13,12.84189 L13,12.00089 L10.424,12.00089 Z M6.724,12.00089 L6.724,17.00089 L7.93,17.00089 C8.4359,17.02579 8.9258,16.81979 9.262,16.44089 C9.6069,16.00079 9.7797,15.45009 9.748,14.89189 L9.748,14.08189 C9.7712,13.52949 9.5936,12.98739 9.248,12.55589 C8.9226,12.18549 8.4476,11.98159 7.955,12.00089 L6.724,12.00089 Z M3,12.00089 L3,17.00089 L3.94,17.00089 L3.94,15.24189 L4.566,15.24189 C4.98402,15.26499 5.39232,15.11029 5.69,14.81589 C5.97408,14.49829 6.1214,14.08149 6.1,13.65589 C6.1186,13.22009 5.97135,12.79349 5.688,12.46189 C5.40772,12.15109 5.00309,11.98199 4.585,12.00089 L3,12.00089 Z M9,2.00087 L9,7.00087 L14,7.00087 L9,2.00087 Z M7.946,16.16289 L7.664,16.16289 L7.664,12.84189 L8.006,12.84189 C8.2489,12.82759 8.4824,12.93749 8.626,13.13389 C8.7726,13.43719 8.8354,13.77409 8.808,14.10989 L8.808,14.97889 C8.83,15.29859 8.7606,15.61799 8.608,15.89989 C8.4441,16.09119 8.1965,16.18959 7.946,16.16289 Z M4.585,14.40089 L3.939,14.40089 L3.939,12.84189 L4.594,12.84189 C4.75752,12.84369 4.90863,12.92939 4.994,13.06889 C5.10222,13.24739 5.15447,13.45429 5.144,13.66289 C5.15654,13.85739 5.1049,14.05059 4.997,14.21289 C4.89754,14.33769 4.74447,14.40759 4.585,14.40089 Z" id="Shape"></path>
        </g>
    </g>
</svg>